{
  "accessors": [
    {
      "bufferView": 0,
      "componentType": 5126,
      "count": 84986,
      "max": [
        0.304457008838654,
        0.368330985307693,
        0.199374005198479
      ],
      "min": [
        -0.304480999708176,
        -0.368366986513138,
        -0.199321001768112
      ],
      "type": "VEC3"
    },
    {
      "bufferView": 1,
      "componentType": 5126,
      "count": 84986,
      "type": "VEC3"
    },
    {
      "bufferView": 2,
      "componentType": 5126,
      "count": 84986,
      "type": "VEC2"
    },
    {
      "bufferView": 3,
      "componentType": 5125,
      "count": 450000,
      "type": "SCALAR"
    }
  ],
  "asset": {
    "generator": "MeshSmith mesh conversion tool",
    "version": "2.0"
  },
  "bufferViews": [
    {
      "buffer": 0,
      "byteLength": 1019832,
      "target": 34962
    },
    {
      "buffer": 0,
      "byteLength": 1019832,
      "byteOffset": 1019832,
      "target": 34962
    },
    {
      "buffer": 0,
      "byteLength": 679888,
      "byteOffset": 2039664,
      "target": 34962
    },
    {
      "buffer": 0,
      "byteLength": 1800000,
      "byteOffset": 2719552,
      "target": 34963
    }
  ],
  "buffers": [
    {
      "byteLength": 4519552,
      "uri": "2009_0120_001-150k-4096.bin"
    }
  ],
  "images": [
    {
      "uri": "2009_0120_001-150k-4096-diffuse.jpg"
    },
    {
      "uri": "2009_0120_001-150k-4096-occlusion.jpg"
    },
    {
      "uri": "2009_0120_001-150k-4096-normals.jpg"
    }
  ],
  "materials": [
    {
      "name": "default",
      "normalTexture": {
        "index": 2
      },
      "occlusionTexture": {
        "index": 1
      },
      "pbrMetallicRoughness": {
        "baseColorTexture": {
          "index": 0
        },
        "metallicFactor": 0.100000001490116,
        "roughnessFactor": 0.800000011920929
      }
    }
  ],
  "meshes": [
    {
      "primitives": [
        {
          "attributes": {
            "NORMAL": 1,
            "POSITION": 0,
            "TEXCOORD_0": 2
          },
          "indices": 3,
          "material": 0,
          "mode": 4
        }
      ]
    }
  ],
  "nodes": [
    {
      "mesh": 0
    }
  ],
  "scene": 0,
  "scenes": [
    {
      "nodes": [
        0
      ]
    }
  ],
  "textures": [
    {
      "source": 0
    },
    {
      "source": 1
    },
    {
      "source": 2
    }
  ]
}